<?xml version="1.0" encoding="UTF-8" standalone="no"?>
<!-- Created with Inkscape (http://www.inkscape.org/) -->

<svg
   width="194.69797mm"
   height="212.88383mm"
   viewBox="0 0 194.69797 212.88383"
   version="1.1"
   id="svg1"
   inkscape:version="1.3.2 (1:1.3.2+202311252150+091e20ef0f)"
   sodipodi:docname="logo.svg"
   xmlns:inkscape="http://www.inkscape.org/namespaces/inkscape"
   xmlns:sodipodi="http://sodipodi.sourceforge.net/DTD/sodipodi-0.dtd"
   xmlns="http://www.w3.org/2000/svg"
   xmlns:svg="http://www.w3.org/2000/svg">
  <sodipodi:namedview
     id="namedview1"
     pagecolor="#ffffff"
     bordercolor="#000000"
     borderopacity="0.25"
     inkscape:showpageshadow="2"
     inkscape:pageopacity="0.0"
     inkscape:pagecheckerboard="0"
     inkscape:deskcolor="#d1d1d1"
     inkscape:document-units="mm"
     inkscape:zoom="1.0449705"
     inkscape:cx="379.91502"
     inkscape:cy="454.07979"
     inkscape:window-width="2560"
     inkscape:window-height="1373"
     inkscape:window-x="1920"
     inkscape:window-y="31"
     inkscape:window-maximized="1"
     inkscape:current-layer="layer1" />
  <defs
     id="defs1" />
  <g
     inkscape:label="Layer 1"
     inkscape:groupmode="layer"
     id="layer1"
     transform="translate(-6.237386,-28.233384)">
    <circle
       style="opacity:0.17195;fill:#061b30;fill-opacity:1;stroke:#ffffff;stroke-width:3.49999;stroke-linecap:round;stroke-linejoin:round;stroke-miterlimit:10.3;stroke-opacity:1;paint-order:markers fill stroke"
       id="path1"
       cx="103.58637"
       cy="139.87755"
       r="95.598991" />
    <path
       inkscape:connector-curvature="0"
       style="fill:#061b30;fill-opacity:1;stroke:#ffffff;stroke-width:0.693889;stroke-miterlimit:4;stroke-dasharray:none;stroke-opacity:1"
       d="m 125.93452,28.71702 c -4.57403,-0.865357 -9.01815,2.465903 -9.96471,7.469152 l -1.35147,7.143535 c -0.5582,2.950391 0.22907,5.803075 1.90636,7.825406 -3.2524,7.306392 -8.7853,29.431355 -13.80992,55.990067 l -0.74056,3.91433 -0.0737,0.3895 -21.735781,114.88916 c -0.41033,2.16887 1.005461,4.24538 3.174282,4.65568 l 8.354654,1.5806 c 2.168886,0.41033 4.245356,-1.00546 4.655687,-3.17432 l 21.735818,-114.88916 0.0737,-0.3895 0.74052,-3.91433 c 5.02462,-26.558713 7.95647,-49.175771 7.59789,-57.165316 2.30014,-1.269845 4.07508,-3.637789 4.63325,-6.58818 l 1.3515,-7.143535 c 0.94656,-5.003253 -1.9735,-9.727735 -6.54752,-10.593089 z"
       id="rect8689-9-1-6"
       inkscape:export-xdpi="285.43286"
       inkscape:export-ydpi="285.43286" />
    <path
       inkscape:connector-curvature="0"
       style="fill:#061b30;fill-opacity:1;stroke:#ffffff;stroke-width:0.693889;stroke-miterlimit:4;stroke-dasharray:none;stroke-opacity:1"
       d="m 137.668,52.325255 c -4.19416,-2.01971 -9.34906,0.04782 -11.55831,4.6356 l -3.15433,6.550333 c -1.3028,2.705391 -1.28069,5.664613 -0.18397,8.052159 -5.03257,6.215656 -16.10333,26.154704 -27.830629,50.507993 l -1.728413,3.58928 -0.171994,0.35715 -50.730696,105.34879 c -0.957681,1.98872 -0.127556,4.36093 1.861196,5.31861 l 7.660887,3.68908 c 1.988753,0.95768 4.360935,0.12759 5.318616,-1.86117 l 50.730663,-105.34879 0.17199,-0.35714 1.72842,-3.58929 c 11.72733,-24.35329 20.41294,-45.440877 22.13443,-53.250987 2.55047,-0.631249 4.87778,-2.459119 6.18054,-5.164516 l 3.15433,-6.55034 c 2.20926,-4.587773 0.61148,-9.907051 -3.58273,-11.926762 z"
       id="rect8689-9-1"
       inkscape:export-xdpi="285.43286"
       inkscape:export-ydpi="285.43286" />
  </g>
</svg>
